<svg xmlns="http://www.w3.org/2000/svg" xmlns:xlink="http://www.w3.org/1999/xlink" xmlns:lucid="lucid" width="1060" height="710"><g transform="translate(-40 -30)" lucid:page-tab-id="0_0"><path d="M60 340h160v120H60z" stroke="#000" stroke-width="2" fill="#fff"/><use xlink:href="#a" transform="matrix(1,0,0,1,65,345) translate(11.099999999999994 59.0875)"/><path d="M380 160h260v120H380z" stroke="#000" stroke-width="2" fill="#fff"/><use xlink:href="#b" transform="matrix(1,0,0,1,385,165) translate(32.150000000000006 59.0875)"/><path d="M760 50h320v120H760z" stroke="#000" stroke-width="2" fill="#fff"/><use xlink:href="#c" transform="matrix(1,0,0,1,765,55) translate(32.17500000000001 59.0875)"/><path d="M760 220h320v120H760z" stroke="#000" stroke-width="2" fill="#fff"/><use xlink:href="#d" transform="matrix(1,0,0,1,765,225) translate(29.725000000000023 59.0875)"/><path d="M222 400h78V220h60.5" stroke="#000" stroke-width="2" fill="none"/><path d="M222.03 401H221v-2h1.03z"/><path d="M375.76 220l-14.26 4.64v-9.28z" stroke="#000" stroke-width="2"/><path d="M642 220h58V110h40.5" stroke="#000" stroke-width="2" fill="none"/><path d="M642.03 221H641v-2h1.03z"/><path d="M755.76 110l-14.26 4.64v-9.28z" stroke="#000" stroke-width="2"/><path d="M920 218v-28.5" stroke="#000" stroke-width="2" fill="none"/><path d="M921 219h-2v-1.03h2z"/><path d="M920 174.24l4.64 14.26h-9.28z" stroke="#000" stroke-width="2"/><path d="M380 530h260v120H380z" stroke="#000" stroke-width="2" fill="#fff"/><use xlink:href="#e" transform="matrix(1,0,0,1,385,535) translate(33.30000000000001 59.0875)"/><path d="M760 420h320v120H760z" stroke="#000" stroke-width="2" fill="#fff"/><use xlink:href="#f" transform="matrix(1,0,0,1,765,425) translate(33.000000000000014 59.0875)"/><path d="M760 600h320v120H760z" stroke="#000" stroke-width="2" fill="#fff"/><use xlink:href="#g" transform="matrix(1,0,0,1,765,605) translate(30.550000000000026 59.0875)"/><path d="M642 590h58V480h40.5" stroke="#000" stroke-width="2" fill="none"/><path d="M642.03 591H641v-2h1.03z"/><path d="M755.76 480l-14.26 4.64v-9.28z" stroke="#000" stroke-width="2"/><path d="M920 598v-38.5" stroke="#000" stroke-width="2" fill="none"/><path d="M921 599h-2v-1.03h2z"/><path d="M920 544.24l4.64 14.26h-9.28z" stroke="#000" stroke-width="2"/><path d="M300 401v189h60.5M300 401.03V400" stroke="#000" stroke-width="2" fill="none"/><path d="M375.76 590l-14.26 4.64v-9.28z" stroke="#000" stroke-width="2"/><defs><path d="M115-194c55 1 70 41 70 98S169 2 115 4C84 4 66-9 55-30l1 105H24l-1-265h31l2 30c10-21 28-34 59-34zm-8 174c40 0 45-34 45-75s-6-73-45-74c-42 0-51 32-51 76 0 43 10 73 51 73" id="h"/><path d="M106-169C34-169 62-67 57 0H25v-261h32l-1 103c12-21 28-36 61-36 89 0 53 116 60 194h-32v-121c2-32-8-49-39-48" id="i"/><path d="M16-82v-28h88v28H16" id="j"/><path d="M101-234c-31-9-42 10-38 44h38v23H63V0H32v-167H5v-23h27c-7-52 17-82 69-68v24" id="k"/><path d="M210-169c-67 3-38 105-44 169h-31v-121c0-29-5-50-35-48C34-165 62-65 56 0H25l-1-190h30c1 10-1 24 2 32 10-44 99-50 107 0 11-21 27-35 58-36 85-2 47 119 55 194h-31v-121c0-29-5-49-35-48" id="l"/><path d="M33 0v-38h34V0H33" id="m"/><path d="M135-143c-3-34-86-38-87 0 15 53 115 12 119 90S17 21 10-45l28-5c4 36 97 45 98 0-10-56-113-15-118-90-4-57 82-63 122-42 12 7 21 19 24 35" id="n"/><path d="M100-194c63 0 86 42 84 106H49c0 40 14 67 53 68 26 1 43-12 49-29l28 8c-11 28-37 45-77 45C44 4 14-33 15-96c1-61 26-98 85-98zm52 81c6-60-76-77-97-28-3 7-6 17-6 28h103" id="o"/><path d="M114-163C36-179 61-72 57 0H25l-1-190h30c1 12-1 29 2 39 6-27 23-49 58-41v29" id="p"/><path d="M108 0H70L1-190h34L89-25l56-165h34" id="q"/><path d="M24-231v-30h32v30H24zM24 0v-190h32V0H24" id="r"/><path d="M96-169c-40 0-48 33-48 73s9 75 48 75c24 0 41-14 43-38l32 2c-6 37-31 61-74 61-59 0-76-41-82-99-10-93 101-131 147-64 4 7 5 14 7 22l-32 3c-4-21-16-35-41-35" id="s"/><g id="a"><use transform="matrix(0.05,0,0,0.05,0,0)" xlink:href="#h"/><use transform="matrix(0.05,0,0,0.05,10,0)" xlink:href="#i"/><use transform="matrix(0.05,0,0,0.05,20,0)" xlink:href="#h"/><use transform="matrix(0.05,0,0,0.05,30,0)" xlink:href="#j"/><use transform="matrix(0.05,0,0,0.05,35.95,0)" xlink:href="#k"/><use transform="matrix(0.05,0,0,0.05,40.95,0)" xlink:href="#h"/><use transform="matrix(0.05,0,0,0.05,50.95,0)" xlink:href="#l"/><use transform="matrix(0.05,0,0,0.05,65.9,0)" xlink:href="#m"/><use transform="matrix(0.05,0,0,0.05,70.9,0)" xlink:href="#n"/><use transform="matrix(0.05,0,0,0.05,79.9,0)" xlink:href="#o"/><use transform="matrix(0.05,0,0,0.05,89.9,0)" xlink:href="#p"/><use transform="matrix(0.05,0,0,0.05,95.85000000000001,0)" xlink:href="#q"/><use transform="matrix(0.05,0,0,0.05,104.85000000000001,0)" xlink:href="#r"/><use transform="matrix(0.05,0,0,0.05,108.80000000000001,0)" xlink:href="#s"/><use transform="matrix(0.05,0,0,0.05,117.80000000000001,0)" xlink:href="#o"/></g><path d="M59-47c-2 24 18 29 38 22v24C64 9 27 4 27-40v-127H5v-23h24l9-43h21v43h35v23H59v120" id="t"/><path d="M195 0l-74-108L45 0H8l94-129-87-119h37l69 98 67-98h37l-84 118L233 0h-38" id="u"/><g id="b"><use transform="matrix(0.05,0,0,0.05,0,0)" xlink:href="#h"/><use transform="matrix(0.05,0,0,0.05,10,0)" xlink:href="#i"/><use transform="matrix(0.05,0,0,0.05,20,0)" xlink:href="#h"/><use transform="matrix(0.05,0,0,0.05,30,0)" xlink:href="#j"/><use transform="matrix(0.05,0,0,0.05,35.95,0)" xlink:href="#k"/><use transform="matrix(0.05,0,0,0.05,40.95,0)" xlink:href="#h"/><use transform="matrix(0.05,0,0,0.05,50.95,0)" xlink:href="#l"/><use transform="matrix(0.05,0,0,0.05,65.9,0)" xlink:href="#j"/><use transform="matrix(0.05,0,0,0.05,71.85000000000001,0)" xlink:href="#n"/><use transform="matrix(0.05,0,0,0.05,80.85000000000001,0)" xlink:href="#r"/><use transform="matrix(0.05,0,0,0.05,84.80000000000001,0)" xlink:href="#t"/><use transform="matrix(0.05,0,0,0.05,89.80000000000001,0)" xlink:href="#o"/><use transform="matrix(0.05,0,0,0.05,99.80000000000001,0)" xlink:href="#u"/><use transform="matrix(0.05,0,0,0.05,111.80000000000001,0)" xlink:href="#u"/><use transform="matrix(0.05,0,0,0.05,123.80000000000001,0)" xlink:href="#m"/><use transform="matrix(0.05,0,0,0.05,128.8,0)" xlink:href="#n"/><use transform="matrix(0.05,0,0,0.05,137.8,0)" xlink:href="#o"/><use transform="matrix(0.05,0,0,0.05,147.8,0)" xlink:href="#p"/><use transform="matrix(0.05,0,0,0.05,153.75,0)" xlink:href="#q"/><use transform="matrix(0.05,0,0,0.05,162.75,0)" xlink:href="#r"/><use transform="matrix(0.05,0,0,0.05,166.7,0)" xlink:href="#s"/><use transform="matrix(0.05,0,0,0.05,175.7,0)" xlink:href="#o"/></g><path d="M85-194c31 0 48 13 60 33l-1-100h32l1 261h-30c-2-10 0-23-3-31C134-8 116 4 85 4 32 4 16-35 15-94c0-66 23-100 70-100zm9 24c-40 0-46 34-46 75 0 40 6 74 45 74 42 0 51-32 51-76 0-42-9-74-50-73" id="v"/><path d="M100-194c62-1 85 37 85 99 1 63-27 99-86 99S16-35 15-95c0-66 28-99 85-99zM99-20c44 1 53-31 53-75 0-43-8-75-51-75s-53 32-53 75 10 74 51 75" id="w"/><path d="M141-36C126-15 110 5 73 4 37 3 15-17 15-53c-1-64 63-63 125-63 3-35-9-54-41-54-24 1-41 7-42 31l-33-3c5-37 33-52 76-52 45 0 72 20 72 64v82c-1 20 7 32 28 27v20c-31 9-61-2-59-35zM48-53c0 20 12 33 32 33 41-3 63-29 60-74-43 2-92-5-92 41" id="x"/><path d="M117-194c89-4 53 116 60 194h-32v-121c0-31-8-49-39-48C34-167 62-67 57 0H25l-1-190h30c1 10-1 24 2 32 11-22 29-35 61-36" id="y"/><path d="M143 0L79-87 56-68V0H24v-261h32v163l83-92h37l-77 82L181 0h-38" id="z"/><g id="c"><use transform="matrix(0.05,0,0,0.05,0,0)" xlink:href="#h"/><use transform="matrix(0.05,0,0,0.05,10,0)" xlink:href="#i"/><use transform="matrix(0.05,0,0,0.05,20,0)" xlink:href="#h"/><use transform="matrix(0.05,0,0,0.05,30,0)" xlink:href="#j"/><use transform="matrix(0.05,0,0,0.05,35.95,0)" xlink:href="#k"/><use transform="matrix(0.05,0,0,0.05,40.95,0)" xlink:href="#h"/><use transform="matrix(0.05,0,0,0.05,50.95,0)" xlink:href="#l"/><use transform="matrix(0.05,0,0,0.05,65.9,0)" xlink:href="#j"/><use transform="matrix(0.05,0,0,0.05,71.85000000000001,0)" xlink:href="#n"/><use transform="matrix(0.05,0,0,0.05,80.85000000000001,0)" xlink:href="#r"/><use transform="matrix(0.05,0,0,0.05,84.80000000000001,0)" xlink:href="#t"/><use transform="matrix(0.05,0,0,0.05,89.80000000000001,0)" xlink:href="#o"/><use transform="matrix(0.05,0,0,0.05,99.80000000000001,0)" xlink:href="#u"/><use transform="matrix(0.05,0,0,0.05,111.80000000000001,0)" xlink:href="#u"/><use transform="matrix(0.05,0,0,0.05,123.80000000000001,0)" xlink:href="#j"/><use transform="matrix(0.05,0,0,0.05,129.75,0)" xlink:href="#v"/><use transform="matrix(0.05,0,0,0.05,139.75,0)" xlink:href="#w"/><use transform="matrix(0.05,0,0,0.05,149.75,0)" xlink:href="#l"/><use transform="matrix(0.05,0,0,0.05,164.7,0)" xlink:href="#x"/><use transform="matrix(0.05,0,0,0.05,174.7,0)" xlink:href="#r"/><use transform="matrix(0.05,0,0,0.05,178.64999999999998,0)" xlink:href="#y"/><use transform="matrix(0.05,0,0,0.05,188.64999999999998,0)" xlink:href="#m"/><use transform="matrix(0.05,0,0,0.05,193.64999999999998,0)" xlink:href="#n"/><use transform="matrix(0.05,0,0,0.05,202.64999999999998,0)" xlink:href="#w"/><use transform="matrix(0.05,0,0,0.05,212.64999999999998,0)" xlink:href="#s"/><use transform="matrix(0.05,0,0,0.05,221.64999999999998,0)" xlink:href="#z"/><use transform="matrix(0.05,0,0,0.05,230.64999999999998,0)" xlink:href="#o"/><use transform="matrix(0.05,0,0,0.05,240.64999999999998,0)" xlink:href="#t"/></g><g id="d"><use transform="matrix(0.05,0,0,0.05,0,0)" xlink:href="#h"/><use transform="matrix(0.05,0,0,0.05,10,0)" xlink:href="#i"/><use transform="matrix(0.05,0,0,0.05,20,0)" xlink:href="#h"/><use transform="matrix(0.05,0,0,0.05,30,0)" xlink:href="#j"/><use transform="matrix(0.05,0,0,0.05,35.95,0)" xlink:href="#k"/><use transform="matrix(0.05,0,0,0.05,40.95,0)" xlink:href="#h"/><use transform="matrix(0.05,0,0,0.05,50.95,0)" xlink:href="#l"/><use transform="matrix(0.05,0,0,0.05,65.9,0)" xlink:href="#j"/><use transform="matrix(0.05,0,0,0.05,71.85000000000001,0)" xlink:href="#n"/><use transform="matrix(0.05,0,0,0.05,80.85000000000001,0)" xlink:href="#r"/><use transform="matrix(0.05,0,0,0.05,84.80000000000001,0)" xlink:href="#t"/><use transform="matrix(0.05,0,0,0.05,89.80000000000001,0)" xlink:href="#o"/><use transform="matrix(0.05,0,0,0.05,99.80000000000001,0)" xlink:href="#u"/><use transform="matrix(0.05,0,0,0.05,111.80000000000001,0)" xlink:href="#u"/><use transform="matrix(0.05,0,0,0.05,123.80000000000001,0)" xlink:href="#j"/><use transform="matrix(0.05,0,0,0.05,129.75,0)" xlink:href="#v"/><use transform="matrix(0.05,0,0,0.05,139.75,0)" xlink:href="#w"/><use transform="matrix(0.05,0,0,0.05,149.75,0)" xlink:href="#l"/><use transform="matrix(0.05,0,0,0.05,164.7,0)" xlink:href="#x"/><use transform="matrix(0.05,0,0,0.05,174.7,0)" xlink:href="#r"/><use transform="matrix(0.05,0,0,0.05,178.64999999999998,0)" xlink:href="#y"/><use transform="matrix(0.05,0,0,0.05,188.64999999999998,0)" xlink:href="#m"/><use transform="matrix(0.05,0,0,0.05,193.64999999999998,0)" xlink:href="#n"/><use transform="matrix(0.05,0,0,0.05,202.64999999999998,0)" xlink:href="#o"/><use transform="matrix(0.05,0,0,0.05,212.64999999999998,0)" xlink:href="#p"/><use transform="matrix(0.05,0,0,0.05,218.59999999999997,0)" xlink:href="#q"/><use transform="matrix(0.05,0,0,0.05,227.59999999999997,0)" xlink:href="#r"/><use transform="matrix(0.05,0,0,0.05,231.54999999999995,0)" xlink:href="#s"/><use transform="matrix(0.05,0,0,0.05,240.54999999999995,0)" xlink:href="#o"/></g><path d="M137-103V0h-34v-103L8-248h37l75 118 75-118h37" id="A"/><g id="e"><use transform="matrix(0.05,0,0,0.05,0,0)" xlink:href="#h"/><use transform="matrix(0.05,0,0,0.05,10,0)" xlink:href="#i"/><use transform="matrix(0.05,0,0,0.05,20,0)" xlink:href="#h"/><use transform="matrix(0.05,0,0,0.05,30,0)" xlink:href="#j"/><use transform="matrix(0.05,0,0,0.05,35.95,0)" xlink:href="#k"/><use transform="matrix(0.05,0,0,0.05,40.95,0)" xlink:href="#h"/><use transform="matrix(0.05,0,0,0.05,50.95,0)" xlink:href="#l"/><use transform="matrix(0.05,0,0,0.05,65.9,0)" xlink:href="#j"/><use transform="matrix(0.05,0,0,0.05,71.85000000000001,0)" xlink:href="#n"/><use transform="matrix(0.05,0,0,0.05,80.85000000000001,0)" xlink:href="#r"/><use transform="matrix(0.05,0,0,0.05,84.80000000000001,0)" xlink:href="#t"/><use transform="matrix(0.05,0,0,0.05,89.80000000000001,0)" xlink:href="#o"/><use transform="matrix(0.05,0,0,0.05,99.80000000000001,0)" xlink:href="#u"/><use transform="matrix(0.05,0,0,0.05,111.80000000000001,0)" xlink:href="#A"/><use transform="matrix(0.05,0,0,0.05,121.5,0)" xlink:href="#m"/><use transform="matrix(0.05,0,0,0.05,126.5,0)" xlink:href="#n"/><use transform="matrix(0.05,0,0,0.05,135.5,0)" xlink:href="#o"/><use transform="matrix(0.05,0,0,0.05,145.5,0)" xlink:href="#p"/><use transform="matrix(0.05,0,0,0.05,151.45,0)" xlink:href="#q"/><use transform="matrix(0.05,0,0,0.05,160.45,0)" xlink:href="#r"/><use transform="matrix(0.05,0,0,0.05,164.39999999999998,0)" xlink:href="#s"/><use transform="matrix(0.05,0,0,0.05,173.39999999999998,0)" xlink:href="#o"/></g><g id="f"><use transform="matrix(0.05,0,0,0.05,0,0)" xlink:href="#h"/><use transform="matrix(0.05,0,0,0.05,10,0)" xlink:href="#i"/><use transform="matrix(0.05,0,0,0.05,20,0)" xlink:href="#h"/><use transform="matrix(0.05,0,0,0.05,30,0)" xlink:href="#j"/><use transform="matrix(0.05,0,0,0.05,35.95,0)" xlink:href="#k"/><use transform="matrix(0.05,0,0,0.05,40.95,0)" xlink:href="#h"/><use transform="matrix(0.05,0,0,0.05,50.95,0)" xlink:href="#l"/><use transform="matrix(0.05,0,0,0.05,65.9,0)" xlink:href="#j"/><use transform="matrix(0.05,0,0,0.05,71.85000000000001,0)" xlink:href="#n"/><use transform="matrix(0.05,0,0,0.05,80.85000000000001,0)" xlink:href="#r"/><use transform="matrix(0.05,0,0,0.05,84.80000000000001,0)" xlink:href="#t"/><use transform="matrix(0.05,0,0,0.05,89.80000000000001,0)" xlink:href="#o"/><use transform="matrix(0.05,0,0,0.05,99.80000000000001,0)" xlink:href="#u"/><use transform="matrix(0.05,0,0,0.05,111.80000000000001,0)" xlink:href="#A"/><use transform="matrix(0.05,0,0,0.05,122.15,0)" xlink:href="#j"/><use transform="matrix(0.05,0,0,0.05,128.1,0)" xlink:href="#v"/><use transform="matrix(0.05,0,0,0.05,138.1,0)" xlink:href="#w"/><use transform="matrix(0.05,0,0,0.05,148.1,0)" xlink:href="#l"/><use transform="matrix(0.05,0,0,0.05,163.04999999999998,0)" xlink:href="#x"/><use transform="matrix(0.05,0,0,0.05,173.04999999999998,0)" xlink:href="#r"/><use transform="matrix(0.05,0,0,0.05,176.99999999999997,0)" xlink:href="#y"/><use transform="matrix(0.05,0,0,0.05,186.99999999999997,0)" xlink:href="#m"/><use transform="matrix(0.05,0,0,0.05,191.99999999999997,0)" xlink:href="#n"/><use transform="matrix(0.05,0,0,0.05,200.99999999999997,0)" xlink:href="#w"/><use transform="matrix(0.05,0,0,0.05,210.99999999999997,0)" xlink:href="#s"/><use transform="matrix(0.05,0,0,0.05,219.99999999999997,0)" xlink:href="#z"/><use transform="matrix(0.05,0,0,0.05,228.99999999999997,0)" xlink:href="#o"/><use transform="matrix(0.05,0,0,0.05,238.99999999999997,0)" xlink:href="#t"/></g><g id="g"><use transform="matrix(0.05,0,0,0.05,0,0)" xlink:href="#h"/><use transform="matrix(0.05,0,0,0.05,10,0)" xlink:href="#i"/><use transform="matrix(0.05,0,0,0.05,20,0)" xlink:href="#h"/><use transform="matrix(0.05,0,0,0.05,30,0)" xlink:href="#j"/><use transform="matrix(0.05,0,0,0.05,35.95,0)" xlink:href="#k"/><use transform="matrix(0.05,0,0,0.05,40.95,0)" xlink:href="#h"/><use transform="matrix(0.05,0,0,0.05,50.95,0)" xlink:href="#l"/><use transform="matrix(0.05,0,0,0.05,65.9,0)" xlink:href="#j"/><use transform="matrix(0.05,0,0,0.05,71.85000000000001,0)" xlink:href="#n"/><use transform="matrix(0.05,0,0,0.05,80.85000000000001,0)" xlink:href="#r"/><use transform="matrix(0.05,0,0,0.05,84.80000000000001,0)" xlink:href="#t"/><use transform="matrix(0.05,0,0,0.05,89.80000000000001,0)" xlink:href="#o"/><use transform="matrix(0.05,0,0,0.05,99.80000000000001,0)" xlink:href="#u"/><use transform="matrix(0.05,0,0,0.05,111.80000000000001,0)" xlink:href="#A"/><use transform="matrix(0.05,0,0,0.05,122.15,0)" xlink:href="#j"/><use transform="matrix(0.05,0,0,0.05,128.1,0)" xlink:href="#v"/><use transform="matrix(0.05,0,0,0.05,138.1,0)" xlink:href="#w"/><use transform="matrix(0.05,0,0,0.05,148.1,0)" xlink:href="#l"/><use transform="matrix(0.05,0,0,0.05,163.04999999999998,0)" xlink:href="#x"/><use transform="matrix(0.05,0,0,0.05,173.04999999999998,0)" xlink:href="#r"/><use transform="matrix(0.05,0,0,0.05,176.99999999999997,0)" xlink:href="#y"/><use transform="matrix(0.05,0,0,0.05,186.99999999999997,0)" xlink:href="#m"/><use transform="matrix(0.05,0,0,0.05,191.99999999999997,0)" xlink:href="#n"/><use transform="matrix(0.05,0,0,0.05,200.99999999999997,0)" xlink:href="#o"/><use transform="matrix(0.05,0,0,0.05,210.99999999999997,0)" xlink:href="#p"/><use transform="matrix(0.05,0,0,0.05,216.94999999999996,0)" xlink:href="#q"/><use transform="matrix(0.05,0,0,0.05,225.94999999999996,0)" xlink:href="#r"/><use transform="matrix(0.05,0,0,0.05,229.89999999999998,0)" xlink:href="#s"/><use transform="matrix(0.05,0,0,0.05,238.89999999999998,0)" xlink:href="#o"/></g></defs></g></svg>